<?xml version="1.0" standalone="no"?>
<!DOCTYPE svg PUBLIC "-//W3C//DTD SVG 1.1//EN" "http://www.w3.org/Graphics/SVG/1.1/DTD/svg11.dtd" >
<svg xmlns="http://www.w3.org/2000/svg">
<metadata>
This is a custom SVG webfont generated by Font Squirrel.
Copyright   : Copyright  1993 1994 2001 Adobe Systems Incorporated  All Rights Reserved
Designer    : Herb Lubalin Tom Carnase Ed Benguiat Adobe Type Staff
Foundry URL : httpwwwadobecomtype
</metadata>
<defs>
<font id="ITCAvantGardeGothicStdXLtOb" horiz-adv-x="1136" >
<font-face units-per-em="2048" ascent="1516" descent="-532" />
<missing-glyph horiz-adv-x="567" />
<glyph unicode=" "  horiz-adv-x="567" />
<glyph unicode="&#x09;" horiz-adv-x="567" />
<glyph unicode="&#xa0;" horiz-adv-x="567" />
<glyph unicode="!" horiz-adv-x="530" d="M236 0l30 166h62l-31 -166h-61zM299 340l217 1176h62l-218 -1176h-61z" />
<glyph unicode="&#x22;" horiz-adv-x="681" d="M360 909l113 607h62l-113 -607h-62zM596 909l113 607h61l-113 -607h-61z" />
<glyph unicode="#" d="M139 555l8 47h316l92 281h-309l8 47h317l148 452h49l-147 -452h292l148 452h49l-147 -452h309l-8 -47h-318l-92 -281h311l-8 -47h-315l-160 -492h-49l158 492h-293l-158 -492h-51l160 492h-310zM512 602h293l94 281h-293z" />
<glyph unicode="$" d="M256 465h61q-16 -162 72 -245t215 -83q137 0 251 95.5t138 230.5q6 35 7 65.5t-6 57t-14 47t-25.5 39t-32 33t-41 27.5t-44 21.5t-51 20.5t-51 17.5t-53.5 15.5q-287 84 -240 338q25 137 129.5 234.5t249.5 115.5l31 164h61l-30 -164q156 -20 218 -115.5t50 -216.5h-61 q4 74 -18.5 131.5t-62.5 87t-82 44t-81 14.5q-111 0 -215.5 -82t-126.5 -213q-6 -31 -7 -57.5t5 -49t13 -41t23 -33.5l27 -28q12 -12 36 -24.5t39 -19.5t45 -17.5t46 -15.5l49 -15q23 -6 35 -10.5t38 -13.5t42 -18t41 -23.5t40 -31t33.5 -37t29 -46t17.5 -56t7 -68.5t-8 -79 q-27 -145 -151 -259t-283 -124l-37 -195h-62l37 195q-154 14 -238.5 120.5t-64.5 266.5z" />
<glyph unicode="%" horiz-adv-x="1472" d="M233 0l1217 1516h66l-1217 -1516h-66zM268 1208l2 2q27 143 139.5 237.5t256.5 94.5q145 0 221 -95t49 -238.5t-138.5 -239t-256.5 -95.5q-143 0 -221.5 94.5t-51.5 239.5zM326 1206q-23 -123 39.5 -201.5t185.5 -78.5t214 79.5t113.5 202.5t-39 203t-184.5 80t-215 -80 t-114 -203v-2zM817 307v2q27 143 139.5 237.5t256 94.5t221 -94t51.5 -240q-29 -145 -140.5 -239.5t-254.5 -94.5q-145 0 -222.5 95.5t-50.5 238.5zM874 305q-23 -123 39 -201.5t185 -78.5t215 79.5t114.5 202.5t-40 203t-185.5 80t-214 -80t-114 -203v-2z" />
<glyph unicode="&#x26;" horiz-adv-x="1476" d="M186 397q18 94 70.5 174t128.5 137.5t146.5 95.5t148.5 66q-12 18 -33.5 46t-34 44.5t-31 44t-25.5 46t-18.5 50.5t-8.5 56.5t3 63.5q25 131 135.5 226t245.5 95q139 0 219 -98t56 -232q-10 -59 -42 -110t-62.5 -83t-94 -66.5t-98.5 -51t-117 -49.5l307 -387l351 491h63 l-379 -534l320 -404l-52 -41l-307 388q-145 -213 -264 -302.5t-291 -89.5q-180 0 -273.5 129t-62.5 295zM248 395q-27 -145 53 -254.5t238 -109.5q152 0 261 89t240 288l-327 419q-238 -96 -339 -201.5t-126 -230.5zM592 1170.5q-4 -21.5 8 -53.5t19.5 -49t27 -46t30.5 -43 t32.5 -41t31.5 -41q205 84 285 143.5t100 173.5q18 106 -44 186.5t-179 80.5h-2q-117 0 -203 -79t-102 -173q0 -37 -4 -58.5z" />
<glyph unicode="'" horiz-adv-x="454" d="M365 909l112 607h62l-113 -607h-61z" />
<glyph unicode="(" horiz-adv-x="870" d="M303 494q59 322 276.5 607t512.5 441l-15 -72q-254 -141 -453.5 -405t-254.5 -571q-57 -309 43 -573.5t303 -405.5l-15 -76q-246 182 -352 454.5t-45 600.5z" />
<glyph unicode=")" horiz-adv-x="870" d="M-39 -561l14 69q254 143 454 407.5t255 571.5q57 307 -44 572.5t-302 406.5l14 76q246 -182 351.5 -454.5t46.5 -600.5q-59 -322 -276.5 -608t-512.5 -440z" />
<glyph unicode="*" horiz-adv-x="1173" d="M510 1087l244 127l-197 123l41 54l193 -127l47 252h59l-47 -252l242 127l18 -52l-238 -125l195 -129l-37 -49l-199 125l-47 -252h-59l47 254l-240 -127z" />
<glyph unicode="+" horiz-adv-x="1228" d="M193 483l10 58h483l90 485h58l-91 -485h484l-10 -58h-484l-90 -483h-57l90 483h-483z" />
<glyph unicode="," horiz-adv-x="567" d="M98 -147l187 315h65l-186 -315h-66z" />
<glyph unicode="-" horiz-adv-x="544" d="M100 537l11 59h544l-10 -59h-545z" />
<glyph unicode="." horiz-adv-x="567" d="M254 0l31 166h61l-31 -166h-61z" />
<glyph unicode="/" horiz-adv-x="1060" d="M98 -205l1039 1721h67l-1038 -1721h-68z" />
<glyph unicode="0" d="M162.5 262q-21.5 82 1.5 193l108 587q23 125 81.5 220.5t125 146.5t144 83t130 41t95.5 9q207 0 324.5 -134t78.5 -347l-112 -606q-20 -111 -74.5 -199t-119 -139t-140.5 -85t-134.5 -46.5t-103.5 -12.5q-57 0 -115.5 14.5t-122 48.5t-104.5 89t-62.5 137zM225 455 q-37 -197 68.5 -311.5t279.5 -114.5q63 0 135 21.5t149 66.5t137.5 133t82.5 205l113 606q31 168 -56 297t-296 129q-176 0 -319.5 -116t-182.5 -322z" />
<glyph unicode="1" d="M498 1460l10 56h397l-280 -1516h-62l271 1460h-336z" />
<glyph unicode="2" d="M117 0l10 55l651 559q8 6 76 64.5t86 75t70.5 70t75 85t48 81.5t37.5 97q35 174 -54 287t-255 113q-158 0 -290 -112.5t-175 -321.5h-61q51 244 221 374q143 115 324 115q190 0 290.5 -132t59.5 -333q-25 -104 -93.5 -190t-203.5 -211l-725 -621h833l-10 -55h-915z" />
<glyph unicode="3" d="M162 440h61q-31 -199 72.5 -305t257.5 -106q180 0 311 116.5t162 286.5q6 51 4 107.5t-27.5 109.5t-64.5 96t-109.5 69t-158.5 26h-82l10 55h80q86 0 156.5 25.5t109.5 60.5t68.5 81t39 74.5t15.5 55.5q23 129 -41.5 212t-189.5 83q-131 0 -227.5 -83t-129.5 -206h-61 q41 164 164 254t258 90q145 0 232 -94t56 -258q-41 -211 -272 -322q84 -33 140.5 -89t75 -113.5t25.5 -119t-7 -102.5q-39 -211 -193 -341t-360 -130q-102 0 -191.5 45t-138.5 127q-78 125 -45 295z" />
<glyph unicode="4" d="M63 295l11 53l985 1168h84l-215 -1166h153l-10 -55h-153l-56 -295h-61l55 295h-793zM145 350h721l201 1092z" />
<glyph unicode="5" d="M125 444h61q-12 -193 99.5 -304t269.5 -111q178 0 336 135t192 323q37 195 -71.5 330t-286.5 135q-203 0 -379 -176l-49 15l272 725h680l-10 -56h-631l-217 -571q180 119 348 119q215 0 331 -154t77 -360q-41 -219 -220 -370t-384 -151q-170 0 -302 123t-116 348z" />
<glyph unicode="6" d="M154 469q35 186 200 379l582 668h65l-405 -474q-4 -4 -42 -49t-58 -69q129 78 264 77q203 0 321.5 -144t75.5 -365q-37 -211 -209 -365t-385 -154q-240 0 -350 168q-92 142 -59 328zM217 471q-35 -182 60.5 -312t293.5 -130q190 0 340 134t185 322q20 113 -2.5 203 t-75.5 145.5t-122 84t-144 28.5q-72 0 -151 -26.5t-157.5 -79t-141 -148.5t-85.5 -219v-2z" />
<glyph unicode="7" d="M244 0l944 1460h-739l10 56h805l-11 -56l-946 -1460h-63z" />
<glyph unicode="8" d="M186 428q31 152 139.5 268.5t258.5 161.5q-90 41 -135.5 132t-26.5 196v2q29 143 156 248.5t276 105.5q152 0 238 -103.5t59 -252.5q-18 -104 -96 -195.5t-185 -132.5q129 -43 196 -160.5t42 -269.5q-41 -190 -197.5 -322.5t-347 -132.5t-299.5 132.5t-78 322.5zM248 426 q-31 -166 63.5 -281.5t262 -115.5t305 115.5t168 283.5t-63.5 283.5t-262 115.5t-305 -115.5t-168 -283.5v-2zM483 1182q-23 -125 49 -212t199 -87t231.5 87t127.5 214q25 127 -47 215t-199 88t-231.5 -88t-129.5 -215v-2z" />
<glyph unicode="9" d="M260 1024q39 211 211 364.5t385 153.5q238 0 348 -168q92 -141 60 -327q-37 -193 -201 -379l-582 -668h-65l405 473q74 86 103 119q-45 -27 -117 -53q-78 -25 -148 -25q-203 0 -322.5 144.5t-76.5 365.5zM322 1030q-20 -113 2 -203t76.5 -145t123 -84t144.5 -29 q72 0 149.5 27t157.5 79t141.5 148.5t83.5 218.5l2 2q33 182 -61 312.5t-293 130.5q-190 0 -340.5 -134.5t-185.5 -322.5z" />
<glyph unicode=":" horiz-adv-x="567" d="M254 0l31 166h61l-31 -166h-61zM424 920l31 165h61l-31 -165h-61z" />
<glyph unicode=";" horiz-adv-x="567" d="M98 -147l187 315h65l-186 -315h-66zM422 920l31 165h61l-31 -165h-61z" />
<glyph unicode="&#x3c;" horiz-adv-x="1228" d="M193 481l10 66l1114 481l-12 -63l-1039 -451l873 -451l-13 -63z" />
<glyph unicode="=" horiz-adv-x="1228" d="M156 285l10 57h1024l-10 -57h-1024zM229 682l11 57h1024l-11 -57h-1024z" />
<glyph unicode="&#x3e;" horiz-adv-x="1228" d="M102 0l13 63l1040 451l-874 451l12 63l934 -481l-10 -66z" />
<glyph unicode="?" horiz-adv-x="1097" d="M289 1114q2 18 14 55q43 133 140.5 221.5t188.5 120t177 31.5q176 0 282.5 -122t71.5 -308q-10 -59 -38.5 -112.5t-85 -109.5t-87 -84t-106.5 -89q-66 -55 -110 -108.5t-66.5 -106.5t-30.5 -83t-16 -79h-62q14 66 25.5 103.5t39 97t78 116t123.5 117.5q16 14 60.5 51 t62 52.5t49 48t47 57.5t32 59.5t24.5 73.5q29 150 -57.5 256.5t-245.5 106.5q-127 0 -253 -76t-179 -227q-12 -41 -17 -62h-61zM498 0l30 166h60l-31 -166h-59z" />
<glyph unicode="@" horiz-adv-x="1630" d="M223 748q59 330 330.5 562t603.5 232q127 0 243 -42t203 -118.5t126.5 -201.5t11.5 -277q-27 -141 -102.5 -258t-166 -181.5t-174.5 -99t-145 -34.5q-20 0 -40.5 4t-48.5 17.5t-41 47t-5 84.5q-133 -145 -289 -145q-31 0 -62.5 10t-66.5 39t-44 81t1 136 q39 215 206 395.5t335 180.5q94 0 134 -43t54 -127l74 137h57l-301 -557q0 -2 -10 -20.5t-20.5 -42t-14.5 -42.5q-25 -102 94 -102q135 0 304 142.5t214 375.5q27 143 -10 259t-117.5 185.5t-185 106.5t-219.5 37q-301 0 -556 -209t-314 -532q-59 -319 115.5 -520 t461.5 -201q180 0 376 91t318 265h52q-125 -205 -340 -307.5t-412 -102.5q-326 0 -507 224.5t-122 550.5zM612 602q-20 -115 22 -163t107 -48q215 0 355 273q2 2 31.5 53t47 81.5t39 76t25.5 71.5q14 92 -36 136t-111 44q-133 0 -286 -157.5t-192 -364.5z" />
<glyph unicode="A" horiz-adv-x="1406" d="M14 0l930 1516h80l369 -1516h-66l-129 528h-792l-326 -528h-66zM442 584h740l-209 874z" />
<glyph unicode="B" horiz-adv-x="1105" d="M158 0l280 1516h322q172 0 256 -56q127 -75 127 -237q0 -42 -8 -88q-14 -74 -44 -132.5t-74 -96.5t-78 -60.5t-81 -42.5q76 -23 129 -67t75.5 -88t31.5 -97q7 -47 7 -78q0 -33 -7 -70q-53 -266 -310 -368q-109 -35 -247 -35h-379zM229 55h320q127 0 223 33 q213 84 260 315q7 38 7 74q0 68 -26 125q-40 86 -126 127q-53 25 -101.5 31t-150.5 6h-275zM371 821h274q143 0 223 39q172 88 205 283q7 35 7 67q0 56 -20 103q-32 74 -89 102q-68 43 -221 45h-261z" />
<glyph unicode="C" horiz-adv-x="1609" d="M225 758q41 223 180.5 403t338 280.5t413.5 100.5q221 -2 373.5 -108.5t222.5 -255.5h-72q-23 41 -57.5 84t-98 98t-162.5 91t-216 36q-303 0 -553 -209t-307 -520q-14 -78 -15 -149q0 -214 129 -371q172 -209 476 -209q123 0 238.5 35.5t200.5 94t129 96.5t79 75h69 q-113 -145 -309.5 -251t-417.5 -106q-330 0 -517 224q-140 167 -140 397q0 78 16 164z" />
<glyph unicode="D" horiz-adv-x="1435" d="M158 0l280 1516h428q360 0 525 -201q118 -143 118 -370q0 -88 -18 -187q-68 -358 -307.5 -558t-597.5 -200h-428zM229 55h367q330 0 551 185.5t280 513.5q18 97 18 182q0 206 -106 338q-152 186 -483 186h-367z" />
<glyph unicode="E" horiz-adv-x="1120" d="M158 0l280 1516h832l-10 -56h-771l-122 -669h770l-11 -56h-770l-127 -680h770l-10 -55h-831z" />
<glyph unicode="F" horiz-adv-x="976" d="M158 0l280 1516h744l-11 -56h-682l-122 -669h682l-11 -56h-682l-137 -735h-61z" />
<glyph unicode="G" horiz-adv-x="1746" d="M225 758q41 223 180.5 403t338 280.5t413.5 100.5q211 0 380 -97t241 -265h-74q-72 121 -178 194q-156 113 -379 113q-303 0 -553 -209t-307 -520q-14 -78 -15 -149q0 -214 129 -371q172 -209 476 -209q276 0 520 172q231 162 315 385h-903l10 55h977q-33 -115 -106 -223 q-133 -199 -355.5 -322t-468.5 -123q-330 0 -517 224q-140 167 -140 397q0 78 16 164z" />
<glyph unicode="H" horiz-adv-x="1286" d="M158 0l280 1516h62l-133 -725h847l134 725h61l-281 -1516h-61l137 735h-848l-137 -735h-61z" />
<glyph unicode="I" horiz-adv-x="378" d="M158 0l280 1516h62l-281 -1516h-61z" />
<glyph unicode="J" horiz-adv-x="927" d="M66 289h67q0 -4 1 -11.5t1 -11.5q8 -74 41 -126t78 -73.5t79 -29.5t66 -8q111 2 195 55t123 123q47 82 74 227l200 1082h62l-201 -1082q-27 -152 -82 -250q-59 -86 -129 -133q-119 -78 -256 -78q-121 0 -211 70t-104 197q-2 8 -3 25.5t-1 23.5z" />
<glyph unicode="K" horiz-adv-x="1097" d="M186 0l281 1516h61l-141 -760l848 760h74l-840 -758l629 -758h-82l-629 752l-139 -752h-62z" />
<glyph unicode="L" horiz-adv-x="866" d="M158 0l280 1516h62l-271 -1461h641l-10 -55h-702z" />
<glyph unicode="M" horiz-adv-x="1910" d="M158 0l280 1516h99l438 -1418l960 1418h97l-281 -1516h-61l270 1454l-987 -1454h-35l-449 1454l-270 -1454h-61z" />
<glyph unicode="N" horiz-adv-x="1511" d="M158 0l280 1516h92l777 -1434l266 1434h61l-280 -1516h-78l-787 1454l-270 -1454h-61z" />
<glyph unicode="O" horiz-adv-x="1742" d="M225 758v2q41 221 180.5 401t338 280.5t413.5 100.5q330 0 516 -223q140 -168 140 -401q0 -77 -15 -160q-63 -338 -332.5 -561.5t-599 -223.5t-517.5 224q-140 167 -140 397q0 78 16 164zM285 756q-14 -77 -15 -149q0 -214 130 -370q173 -208 476.5 -208t553 208.5 t307.5 520.5q14 78 14 149q0 214 -129 371q-172 209 -475 209t-553 -209t-307 -520z" />
<glyph unicode="P" horiz-adv-x="1046" d="M137 0l281 1516h352q141 0 221 -18.5t142 -72.5q59 -49 85 -143q14 -52 14 -107q0 -44 -9 -90q-18 -102 -79 -196t-138 -144q-82 -53 -169 -71.5t-227 -18.5h-291l-120 -655h-62zM330 711h293q129 0 207.5 18.5t152.5 65.5q63 39 112.5 120.5t65.5 167.5q7 41 8 81 q0 47 -11 91q-19 82 -66 121q-57 47 -129 65.5t-201 18.5h-293z" />
<glyph unicode="Q" horiz-adv-x="1806" d="M256 758q41 223 180 403t338 280.5t414 100.5q330 0 516 -223q140 -168 140 -401q0 -77 -15 -160q-61 -336 -373 -594q145 -96 363 -127l-11 -64q-66 8 -133 23q-63 14 -115.5 35.5t-79 39t-83.5 54.5q-240 -152 -494 -152q-233 0 -397 110t-226 288q-38 110 -39 231 q0 76 15 156zM313 504q199 61 363 61q244 0 430 -110q63 -37 307 -254q289 215 354 557q14 78 15 149q0 214 -129 371q-172 209 -475 209h-2q-303 0 -552 -209t-307 -520q-14 -77 -14 -145q0 -57 10 -109zM326 444q31 -106 90 -186t121.5 -122t139.5 -67.5t131 -32.5t107 -7 h3q236 0 440 135q-16 12 -69.5 59t-98.5 87t-47 42q-209 158 -486 158q-143 0 -331 -66z" />
<glyph unicode="R" horiz-adv-x="1134" d="M137 0l281 1516h346q295 0 391 -64q86 -47 128 -160q26 -71 27 -149q0 -46 -10 -94q-27 -174 -153 -308q-94 -100 -192.5 -131.5t-247.5 -38.5l301 -571h-78l-328 627h43q291 0 404 96q154 133 190 324q7 39 7 77q0 62 -18 122q-30 97 -104 153q-55 41 -134 51t-236 10 h-285l-270 -1460h-62z" />
<glyph unicode="S" horiz-adv-x="1060" d="M164 383h61q-1 -18 -1 -34q0 -81 25 -143q30 -75 82 -111t102 -51t102 -15q150 0 283.5 102t162.5 258q10 35 10 67q0 20 -4 38q-10 47 -21.5 81.5t-41 62.5t-56 46t-64.5 33.5t-66.5 25t-65.5 19.5q-6 2 -8 2q-57 14 -90 24.5t-92.5 41t-90.5 67.5t-49 102 q-10 37 -10 79q0 33 6 69q29 180 170 287.5t315 107.5q145 0 240 -89q87 -82 87 -236q0 -13 -1 -27h-62q0 297 -278 297q-147 0 -264 -92t-144 -238q-7 -39 -7 -74q0 -41 10 -74q19 -62 79 -101.5t113 -60t147 -44.5q123 -37 172 -68q138 -87 138 -251q0 -41 -9 -87 q-35 -182 -189.5 -303t-328.5 -121q-98 0 -183 41t-140 138q-43 74 -43 171q0 29 4 60z" />
<glyph unicode="T" horiz-adv-x="907" d="M281 1460l10 56h885l-11 -56h-411l-271 -1460h-61l270 1460h-411z" />
<glyph unicode="U" horiz-adv-x="1239" d="M233 297q-1 20 0 38q0 46 4 81q5 49 17 116l182 984h62l-183 -984q-24 -98 -23 -184q0 -94 50 -180q37 -63 116 -101t171 -38q88 0 178 37.5t151 101.5q80 84 109 157.5t53 206.5l183 984h61l-182 -984q-10 -66 -23.5 -115.5t-42.5 -118.5t-80 -128t-123 -104 q-141 -92 -299 -93q-156 0 -264 93q-55 45 -85 103t-32 128z" />
<glyph unicode="V" horiz-adv-x="1363" d="M295 1516h70l335 -1414l863 1414h67l-928 -1516h-43z" />
<glyph unicode="W" horiz-adv-x="1818" d="M305 1516h66l145 -1432l651 1432h43l131 -1432l670 1432h64l-715 -1516h-80l-119 1354l-622 -1354h-82z" />
<glyph unicode="X" d="M16 0l660 770l-361 746h74l330 -689l588 689h71l-635 -746l377 -770h-71l-351 717l-614 -717h-68z" />
<glyph unicode="Y" horiz-adv-x="1134" d="M311 1516h68l299 -924l637 924h69l-690 -994l-96 -522h-61l96 522z" />
<glyph unicode="Z" horiz-adv-x="1021" d="M41 0l6 37l1118 1423h-882l10 56h954l-6 -37l-1118 -1424h897l-10 -55h-969z" />
<glyph unicode="[" horiz-adv-x="870" d="M215 -377l350 1893h443l-11 -62h-381l-329 -1769h381l-11 -62h-442z" />
<glyph unicode="\" horiz-adv-x="1060" d="M418 1516h67l400 -1721h-68z" />
<glyph unicode="]" horiz-adv-x="870" d="M74 -377l10 62h381l330 1769h-381l10 62h442l-350 -1893h-442z" />
<glyph unicode="^" horiz-adv-x="1228" d="M371 768l491 748h66l213 -748h-66l-192 680l-447 -680h-65z" />
<glyph unicode="_" horiz-adv-x="1024" d="M-47 -256l18 102h1024l-18 -102h-1024z" />
<glyph unicode="`" d="M571 1491l37 47l434 -283l-36 -47z" />
<glyph unicode="a" horiz-adv-x="1380" d="M184 543q43 233 233.5 401t444.5 168q184 0 304 -94t145 -219l53 286h57l-200 -1085h-58l51 281q-100 -147 -246.5 -227.5t-316.5 -80.5q-256 0 -383 169q-95 126 -95 288q0 54 11 113zM242 541q-9 -52 -9 -101q0 -74 20 -142q34 -114 140.5 -192.5t272.5 -78.5 q170 0 314 93t226 245q49 90 66 190q9 49 9 93q0 50 -11 95q-29 143 -141.5 229.5t-276.5 86.5q-215 0 -391 -145.5t-219 -370.5v-2z" />
<glyph unicode="b" horiz-adv-x="1380" d="M160 0l280 1516h58l-80 -431l-53 -286q90 137 235 224t332 89q254 0 381 -168q95 -125 95 -287q0 -55 -11 -114q-41 -231 -230.5 -400.5t-445.5 -169.5q-170 0 -288 80t-165 228l-51 -281h-57zM311 543q-10 -54 -9 -104q0 -149 86 -262q116 -151 335 -150 q246 0 411.5 155.5t204.5 360.5v2q11 58 12 110q0 150 -91 258q-123 145 -338 146q-219 0 -394.5 -147.5t-216.5 -368.5z" />
<glyph unicode="c" horiz-adv-x="1267" d="M184 541q45 242 238.5 406.5t439.5 164.5q176 0 309.5 -98.5t159.5 -280.5h-63q-27 166 -150 247q-120 79 -257 79h-7q-207 -2 -393 -146q-80 -61 -139.5 -161.5t-79.5 -208.5q-11 -58 -11 -111q0 -152 92 -260q124 -145 336 -145q176 2 321.5 94t213.5 221h63 q-88 -166 -250.5 -267.5t-344.5 -101.5q-272 0 -396 171q-92 128 -92 287q0 54 10 110z" />
<glyph unicode="d" horiz-adv-x="1386" d="M184 543q43 233 233.5 401t444.5 168q184 0 304 -94t145 -219l53 286l80 431h57l-280 -1516h-58l51 281q-100 -147 -246.5 -227.5t-316.5 -80.5q-256 0 -383 169q-95 126 -95 288q0 54 11 113zM242 541q-9 -52 -9 -101q0 -74 20 -142q34 -114 140.5 -192.5t272.5 -78.5 q219 0 393 151q180 154 211 369q11 56 11 107q0 147 -91 257q-119 147 -338 148q-215 0 -391 -145.5t-219 -370.5v-2z" />
<glyph unicode="e" horiz-adv-x="1267" d="M156 389q0 13 -1 26q0 64 9 126q45 244 240.5 407.5t439.5 163.5q227 0 360 -145q76 -80 103 -195q13 -55 12 -112q0 -61 -14 -123h-1082q-10 -54 -9 -103q0 -67 17 -126q31 -101 97.5 -160.5t147.5 -90t165 -30.5q154 0 291 74.5t225 211.5h64q-100 -166 -267 -258 q-152 -82 -323 -82q-119 0 -211 36t-143.5 94.5t-85 133t-35.5 152.5zM233 590h1022q5 34 5 65q0 153 -106 271q-121 134 -300 133h-20q-205 0 -378.5 -133t-222.5 -336z" />
<glyph unicode="f" horiz-adv-x="538" d="M193 0l190 1032h-178l10 53h178l21 109q61 336 405 348l-10 -55q-129 -10 -193 -51q-113 -72 -147 -258l-18 -93h282l-10 -53h-283l-190 -1032h-57z" />
<glyph unicode="g" horiz-adv-x="1382" d="M115 -129h65q47 -111 111 -168q121 -113 299 -113q199 0 377 146.5t221 374.5l33 176q-102 -152 -248 -233t-318 -81q-260 0 -388 169q-96 126 -96 288q0 54 11 113q43 233 234.5 401t449.5 168q184 0 304 -94t145 -219l53 286h57l-178 -964q-57 -299 -299 -463 q-182 -121 -360 -121q-168 0 -300 89t-173 245zM240 541q-8 -49 -9 -96q0 -145 82 -263q109 -156 357 -155q221 0 393 151q174 152 211 369q10 51 10 99q0 120 -61 226q-111 186 -367 187q-219 0 -396 -145.5t-220 -370.5v-2z" />
<glyph unicode="h" horiz-adv-x="1310" d="M160 0l280 1516h58l-80 -435l-41 -215q74 121 212 186q130 61 259 60h16q250 0 350 -147q63 -91 63 -235q0 -72 -15 -157l-107 -573h-57l106 573q15 80 15 148q0 125 -52 205q-90 133 -313 133q-205 -4 -344 -117q-141 -117 -176 -317l-117 -625h-57z" />
<glyph unicode="i" horiz-adv-x="376" d="M160 0l200 1085h58l-201 -1085h-57zM406 1329l34 187h58l-35 -187h-57z" />
<glyph unicode="j" horiz-adv-x="448" d="M-109 -436l11 61q4 0 11 1t11 3q90 18 146.5 73.5t81 124.5t45.5 185l198 1073h58l-199 -1073q-10 -57 -17.5 -87.5t-24.5 -88t-39.5 -92.5t-56.5 -75t-83 -64.5t-113 -36.5q-4 -2 -14.5 -3t-14.5 -1zM440 1327l35 189h57l-34 -189h-58z" />
<glyph unicode="k" horiz-adv-x="956" d="M160 0l280 1516h58l-168 -906l671 475h78l-667 -477l512 -608h-78l-516 606l-113 -606h-57z" />
<glyph unicode="l" horiz-adv-x="374" d="M160 0l280 1516h58l-281 -1516h-57z" />
<glyph unicode="m" horiz-adv-x="1943" d="M160 0l200 1085h58l-37 -202q66 94 156 150.5t145 67.5t106 11q209 0 295 -133q10 -14 22.5 -46t20.5 -56l7 -25q47 78 102 127q143 133 340 133q188 0 276 -108q68 -81 69 -230q0 -74 -17 -166l-113 -608h-57l112 608q16 83 16 151q0 133 -61 208q-70 92 -235 92 q-186 0 -303 -125q-66 -68 -94.5 -132.5t-51.5 -193.5l-112 -608h-58l113 608q20 108 20 172q0 13 -1 25q-5 66 -38 125q-70 123 -262 129h-9q-73 0 -147 -32q-79 -34 -130 -87q-123 -115 -160 -322l-115 -618h-57z" />
<glyph unicode="n" horiz-adv-x="1312" d="M160 0l200 1085h58q-14 -82 -45 -235q78 135 214 201q128 62 272 61h18q238 -6 334 -143q66 -94 67 -240q0 -67 -14 -145l-109 -584h-57l108 584q13 72 13 133q0 132 -60 218q-87 124 -298 124h-7q-201 -4 -342 -116t-178 -318l-117 -625h-57z" />
<glyph unicode="o" horiz-adv-x="1312" d="M184 543v2q45 242 239.5 404.5t438.5 162.5t377 -163q99 -122 99 -288q0 -56 -11 -118q-45 -244 -238.5 -407t-437 -163t-378.5 163q-100 122 -100 289q0 57 11 118zM242 541q-10 -56 -11 -107q0 -150 90 -260q120 -147 339 -147t394 147.5t216 368.5q10 56 10 108 q0 151 -89 260q-120 147 -339 147.5t-394 -147t-216 -368.5v-2z" />
<glyph unicode="p" horiz-adv-x="1386" d="M80 -436l280 1521h58l-51 -280q100 147 246.5 227t318.5 80q256 0 382 -169q94 -126 94 -287q0 -55 -11 -113q-43 -233 -232.5 -401.5t-443.5 -168.5q-184 0 -305 94.5t-146 219.5l-53 -287l-80 -436h-57zM311 541q-10 -56 -10 -107q0 -151 90 -260q119 -147 338 -147 q215 0 391 145t219 371v2q9 52 9 101q0 74 -20 141q-34 114 -140.5 193t-272.5 79q-213 0 -393 -150q-172 -151 -211 -368z" />
<glyph unicode="q" horiz-adv-x="1380" d="M184 543q43 231 232.5 400t445.5 169q170 0 287 -78t166 -219l49 270h57l-280 -1521h-58l80 436l51 276q-70 -119 -225 -211t-338 -92q-254 0 -382 168q-96 126 -95 288q-1 55 10 114zM242 541q-11 -58 -11 -111q0 -150 91 -258q123 -145 337 -145q219 0 396 147 q176 150 215 367q13 60 13 114q0 143 -89 252q-119 152 -336 152q-246 0 -411.5 -155.5t-204.5 -360.5v-2z" />
<glyph unicode="r" horiz-adv-x="618" d="M160 0l200 1085h58l-37 -206q49 76 108.5 125t125 70.5t102.5 27.5t90 10l-10 -55h-17q-174 0 -293.5 -121t-158.5 -342l-111 -594h-57z" />
<glyph unicode="s" horiz-adv-x="872" d="M154 301h57q-7 -35 -7 -66q0 -81 47 -135q65 -74 185 -73q119 0 206 77.5t103 186.5q5 29 5 55q0 71 -37 115q-51 59 -181 90q-70 20 -109.5 37.5t-78.5 49.5t-51 79q-7 26 -7 57q0 26 5 57q25 131 123 206t225 75q123 -2 190 -76q50 -54 50 -140q0 -31 -7 -67h-57 q6 33 7 61q0 70 -41 112q-54 56 -146 57h-6q-109 0 -188 -64.5t-93 -163.5q-3 -20 -2 -37q0 -67 36 -104q46 -47 163 -82q147 -43 198 -86q66 -59 66 -166q0 -27 -4 -57q-16 -133 -127 -229.5t-250 -96.5q-141 0 -225 93q-59 65 -60 155q1 38 11 80z" />
<glyph unicode="t" horiz-adv-x="606" d="M205 1032l10 53h240l80 431h57l-80 -431h279l-11 -53h-278l-191 -1032h-57l190 1032h-239z" />
<glyph unicode="u" horiz-adv-x="1312" d="M250 502l108 583h58l-109 -583q-13 -72 -13 -133q0 -132 60 -218q87 -124 299 -124h6q201 4 342.5 115.5t180.5 318.5l114 624h58l-201 -1085h-57q4 20 19 101t26 135q-78 -135 -213 -201q-127 -62 -271 -62h-18q-240 6 -337 144q-66 94 -66 239q0 68 14 146z" />
<glyph unicode="v" horiz-adv-x="985" d="M209 1085h63l232 -1019l608 1019h64l-648 -1085h-73z" />
<glyph unicode="w" horiz-adv-x="1552" d="M221 1085h64l182 -1007l461 860h45l143 -860l553 1007h64l-600 -1085h-66l-137 836l-445 -836h-65z" />
<glyph unicode="x" horiz-adv-x="833" d="M20 0l463 545l-262 540h74l233 -485l416 485h70l-461 -540l260 -545h-70l-235 489l-414 -489h-74z" />
<glyph unicode="y" horiz-adv-x="985" d="M180 -436l273 438l-230 1083h64l215 -1005l614 1005h68l-938 -1521h-66z" />
<glyph unicode="z" horiz-adv-x="833" d="M25 0l8 49l856 983h-637l10 53h711l-10 -55l-854 -977h708l-10 -53h-782z" />
<glyph unicode="{" horiz-adv-x="870" d="M319 457l13 57q78 18 143.5 126t93.5 267l72 383q25 135 73 193.5t142 58.5h135l-10 -53h-111q-80 0 -111.5 -45t-60.5 -191l-69 -379q-20 -117 -84 -230.5t-154 -158.5q70 -33 95.5 -137t0.5 -237l-69 -375q-29 -156 -13.5 -198t95.5 -42h110l-8 -53h-135 q-94 0 -121 63.5t0 194.5l70 375q31 139 11 236.5t-108 144.5z" />
<glyph unicode="|" horiz-adv-x="768" d="M496 -596v2386h63v-2386h-63z" />
<glyph unicode="}" horiz-adv-x="870" d="M63 -557l9 53h110q80 0 112 43t60 197l70 375q25 133 89.5 237.5t145.5 136.5q-74 45 -96 168t2 221l70 379q29 143 13.5 189.5t-95.5 46.5h-111l11 53h135q94 0 120.5 -60.5t0.5 -191.5l-72 -383q-29 -160 -3.5 -267.5t97.5 -125.5l-12 -57q-104 -47 -155.5 -137.5 t-80.5 -243.5l-69 -375q-25 -137 -73 -197.5t-142 -60.5h-136z" />
<glyph unicode="~" horiz-adv-x="1228" d="M242 469q55 76 129.5 115t148.5 32q72 0 228 -75q147 -74 202 -74q84 0 193 127l31 -39q-106 -145 -230 -145q-76 0 -219 73q-152 76 -215 76q-131 8 -236 -127z" />
<glyph unicode="&#xa1;" horiz-adv-x="530" d="M156 -428l219 1176h61l-219 -1176h-61zM406 922l30 165h62l-31 -165h-61z" />
<glyph unicode="&#xa2;" d="M279 756q31 162 165 300t349 156l34 195h62l-35 -197q51 -6 91 -18t88 -38t85 -75t58 -118h-68q-70 193 -299 192q-178 0 -307 -114.5t-160 -276.5t52 -282t268 -120q131 0 226 57.5t142 125.5h70q-66 -94 -158 -152.5t-148.5 -73t-109.5 -16.5l-41 -221h-61l41 221 q-137 8 -224.5 83t-112.5 172.5t-7 199.5z" />
<glyph unicode="&#xa3;" d="M74 0l10 55h303l23 25q23 25 37 45t35.5 55t37 78t25.5 92q23 119 -18.5 211t-145.5 189h-229l10 55h176q-63 106 -37 252q37 207 202 346t376 139q164 0 278.5 -99.5t126.5 -275.5h-63q-14 141 -110.5 230.5t-242.5 89.5q-188 -4 -326.5 -121t-179.5 -309 q-25 -139 56 -252h559l-10 -55h-500q182 -164 139 -398q-25 -152 -147 -297h188q129 0 196.5 21.5t129.5 70.5q133 119 157 261q8 51 5 102h63q4 -49 -6 -100q-31 -176 -178 -301q-88 -66 -163 -87.5t-224 -21.5h-553z" />
<glyph unicode="&#xa4;" d="M131 258l188 158q-92 127 -61 286q27 162 162 283l-129 158l51 43l129 -158q150 111 307 111q164 0 266 -109l185 156l37 -43l-185 -158q86 -123 58 -283q-31 -162 -168 -286l127 -158l-51 -43l-125 156q-150 -104 -305.5 -104.5t-264.5 104.5l-188 -156zM317 700 q-27 -152 66.5 -262t245.5 -110q154 0 287 110.5t161 263.5q29 156 -64 265.5t-247 109.5q-152 0 -285 -108.5t-162 -266.5z" />
<glyph unicode="&#xa5;" d="M190 510l11 53h438l31 168l-19 53h-409l10 54h379l-285 678h66l301 -717l575 717h66l-543 -678h387l-10 -54h-420l-37 -53l-31 -168h447l-10 -53h-447l-94 -510h-61l94 510h-439z" />
<glyph unicode="&#xa6;" horiz-adv-x="770" d="M496 -416v834h63v-834h-63zM496 776v836h63v-836h-63z" />
<glyph unicode="&#xa7;" horiz-adv-x="1173" d="M158 2h57q-94 -397 301 -397q158 0 267.5 79.5t140.5 219.5q12 88 -23 147.5t-141 112.5l-365 184q-80 47 -110 88q-66 88 -39 228q16 90 83.5 175t180.5 138q-76 92 -53 219q31 158 152.5 252t279.5 94q168 0 253 -90t56 -252h-57q16 160 -56.5 220.5t-207.5 60.5 q-137 0 -236.5 -77t-124.5 -202q-12 -76 14.5 -132t57 -77.5t86.5 -50.5l280 -145q223 -113 187 -316q-18 -96 -87 -181t-167 -136q127 -102 94 -260q-29 -156 -162 -258.5t-311 -102.5q-223 0 -315 121t-35 338zM301 657q-27 -168 113 -245l422 -213q72 27 149.5 105.5 t95.5 172.5v2q10 57 -1 102.5t-42.5 77t-56.5 48t-66 36.5l-368 195q-205 -91 -246 -281z" />
<glyph unicode="&#xa8;" d="M600 1245l43 238h59l-43 -238h-59zM940 1245l43 238h59l-43 -238h-59z" />
<glyph unicode="&#xa9;" horiz-adv-x="1638" d="M178 758q59 326 324.5 553t601.5 227h2q332 0 513 -227.5t122 -552.5q-63 -332 -331.5 -556.5t-594.5 -224.5q-332 0 -516 223.5t-121 557.5zM236 758q-57 -307 112.5 -517t476.5 -210q303 0 552 210t306 517q55 303 -111.5 515t-477.5 212h-2q-311 0 -556 -213 t-300 -514zM528 756q41 211 187.5 343t345.5 132q154 0 251 -86t89 -221h-58q-2 129 -88 191.5t-204 62.5q-166 0 -297 -113t-166 -307q-39 -211 57 -314.5t248 -103.5q39 0 84 10t114.5 39t130 101.5t93.5 181.5h57q-45 -178 -186.5 -281.5t-304.5 -103.5q-176 0 -285 121 t-68 348z" />
<glyph unicode="&#xaa;" horiz-adv-x="899" d="M272 1186q29 147 156 251.5t283 104.5q211 0 276 -190l33 174h57l-127 -682h-57l33 170q-127 -186 -348 -187q-162 0 -247.5 107t-58.5 252zM328 1176q-18 -109 51.5 -202t210.5 -93q94 0 175 45t134 118q47 76 57 140q12 66 -4 125q-23 82 -91 131t-161 49 q-125 0 -234.5 -85t-135.5 -226z" />
<glyph unicode="&#xab;" horiz-adv-x="718" d="M199 565l307 398h72l-308 -398l162 -391h-72zM426 565l307 398h72l-307 -398l161 -391h-71z" />
<glyph unicode="&#xac;" horiz-adv-x="1228" d="M229 682l11 57h1024l-84 -454h-58l74 397h-967z" />
<glyph unicode="&#xad;" horiz-adv-x="544" d="M100 537l11 59h544l-10 -59h-545z" />
<glyph unicode="&#xae;" horiz-adv-x="1638" d="M178 758q59 326 324.5 553t601.5 227h2q332 0 513 -227.5t122 -552.5q-63 -332 -331.5 -556.5t-594.5 -224.5q-332 0 -516 223.5t-121 557.5zM236 758q-57 -307 112.5 -517t476.5 -210q303 0 552 210t306 517q55 303 -111.5 515t-477.5 212h-2q-311 0 -556 -213 t-300 -514zM537 299l168 907h378q29 0 54.5 -1t75 -14t81 -37t51 -73t7.5 -118q-31 -162 -217 -224q84 -23 106.5 -73t11.5 -134q-16 -152 -18 -173t6 -60h-59q-10 23 14 205q6 63 1 109t-60.5 72t-175.5 26h-291l-76 -412h-57zM680 764h287q4 0 35.5 3t52 6t56.5 11.5 t61.5 21.5t52 33.5t44 51.5t25.5 72q10 53 -5 92t-39.5 57t-66.5 28.5t-64.5 11.5t-55.5 1h-311z" />
<glyph unicode="&#xaf;" d="M449 1321l10 61h729l-10 -61h-729z" />
<glyph unicode="&#xb0;" horiz-adv-x="819" d="M331.5 1159q22.5 123 123 208t223.5 85t192.5 -85t47.5 -208v-2q-23 -121 -124.5 -206t-224.5 -85t-191.5 85t-46 208zM389 1157q-18 -96 37 -164.5t155.5 -68.5t180.5 68.5t98.5 166.5t-37 167t-156 69t-180 -69t-98.5 -167v-2z" />
<glyph unicode="&#xb1;" horiz-adv-x="1228" d="M98 0l11 57h1032l-11 -57h-1032zM205 575l10 58h487l76 403h58l-76 -403h487l-10 -58h-487l-74 -403h-58l74 403h-487z" />
<glyph unicode="&#xb2;" horiz-adv-x="718" d="M186 606l9 47q80 70 231.5 203t220.5 193q135 123 151.5 213t-21.5 154.5t-146 64.5q-96 0 -167 -67.5t-91 -184.5h-58q23 125 97 201q96 102 233 102q119 0 176.5 -73t34.5 -197q-18 -106 -176 -250q-135 -117 -406 -355h476l-9 -51h-555z" />
<glyph unicode="&#xb3;" horiz-adv-x="718" d="M231 881h58q-20 -123 39 -181.5t143 -58.5q104 0 178 64.5t92 164.5q14 86 -32.5 158t-167.5 72h-56l9 51h55q59 0 104 20.5t67.5 52t32 52t13.5 39.5q12 70 -21.5 117t-107.5 49t-128 -44t-71 -122h-57q25 109 104.5 163t161.5 54q86 0 140.5 -60.5t35.5 -154.5 q-25 -129 -151 -189q72 -31 107.5 -100.5t19.5 -153.5q-23 -125 -118 -204.5t-220 -79.5q-150 0 -211 117q-39 76 -19 174z" />
<glyph unicode="&#xb4;" d="M561 1255l537 283l20 -47l-540 -283z" />
<glyph unicode="&#xb5;" horiz-adv-x="1148" d="M90 -371l270 1456h58l-113 -614q-45 -238 19 -330q76 -115 250 -114.5t294 133.5q131 137 183 409l94 516h57l-201 -1085h-57l45 244q-152 -270 -424 -271q-240 0 -319 185l-35 -189l-64 -340h-57z" />
<glyph unicode="&#xb6;" horiz-adv-x="1148" d="M229 1106q39 203 192.5 306.5t362.5 103.5h504l-10 -58h-131l-318 -1716h-61l317 1712h-264l-317 -1712h-62l179 960q-203 0 -316 101.5t-76 302.5z" />
<glyph unicode="&#xb7;" horiz-adv-x="567" d="M336 440l31 166h61l-31 -166h-61z" />
<glyph unicode="&#xb8;" d="M365 -285h55q6 -72 84 -71q37 0 69.5 26.5t42.5 73.5q6 41 -16 66.5t-61 25.5q-53 0 -93 -51l-45 10l134 205h59l-72 -117q18 6 29 6q68 0 99.5 -44t21.5 -101q-12 -61 -60.5 -108.5t-117.5 -47.5q-25 0 -48.5 5.5t-52 36t-28.5 85.5z" />
<glyph unicode="&#xb9;" horiz-adv-x="718" d="M424 1464l8 52h252l-168 -910h-57l159 858h-194z" />
<glyph unicode="&#xba;" horiz-adv-x="899" d="M309 1178v2q27 154 149 257t275 105q158 0 241 -105.5t54 -250.5q-29 -156 -157 -257.5t-271 -101.5q-145 0 -231.5 103t-59.5 248zM367 1178q-23 -119 48.5 -208t194.5 -89t229.5 87t131.5 218q23 125 -46 214t-198 89q-125 0 -230.5 -86t-129.5 -223v-2z" />
<glyph unicode="&#xbb;" horiz-adv-x="718" d="M125 172l305 391l-160 398h72l160 -398l-305 -391h-72zM352 172l305 391l-159 398h71l160 -398l-305 -391h-72z" />
<glyph unicode="&#xbc;" horiz-adv-x="1433" d="M293 0l954 1516h62l-957 -1516h-59zM362 1464l9 52h252l-168 -910h-58l160 858h-195zM768 174l8 43l584 692h67l-127 -684h86l-8 -51h-86l-32 -174h-58l33 174h-467zM846 225h397l113 609z" />
<glyph unicode="&#xbd;" horiz-adv-x="1536" d="M293 0l954 1516h62l-957 -1516h-59zM362 1464l9 52h252l-168 -910h-58l160 858h-195zM893 0l8 47q80 70 231.5 203t221.5 192q135 123 151 213q18 90 -19.5 154.5t-148.5 64.5q-96 0 -165.5 -67.5t-92.5 -183.5h-57q20 109 82 184q98 119 248 119q119 0 177 -73t34 -198 q-18 -106 -177 -249q-199 -172 -403 -355h475l-10 -51h-555z" />
<glyph unicode="&#xbe;" horiz-adv-x="1652" d="M246 881h57q-20 -123 39 -181.5t143 -58.5q104 0 178 64.5t93 164.5q14 86 -33 158t-168 72h-55l8 51h55q59 0 104.5 20.5t68 52t31.5 52t13 39.5q12 70 -21.5 117t-107 49t-128 -44t-70.5 -122h-58q25 109 105 163t162 54q86 0 140 -60.5t36 -154.5q-25 -129 -152 -189 q72 -31 107.5 -100.5t19.5 -153.5q-23 -125 -118 -204.5t-220 -79.5q-158 0 -213 125q-32 72 -16 166zM514 0l954 1516h62l-957 -1516h-59zM989 174l8 43l584 692h68l-127 -684h86l-9 -51h-86l-32 -174h-58l33 174h-467zM1067 225h397l113 609z" />
<glyph unicode="&#xbf;" horiz-adv-x="1097" d="M137 -25q10 57 39 110.5t83 109t88 85t106 89.5q66 55 109.5 108t66 106.5t31 83t16.5 78.5h61q-14 -68 -25.5 -103.5t-38 -96t-76.5 -116.5t-126 -118q-16 -14 -60 -51t-61.5 -52t-49.5 -48t-47 -56.5t-31.5 -59.5t-24.5 -73q-27 -150 59 -256t246 -106q127 0 252 75.5 t178 227.5q12 31 18 61h62q-2 -10 -7.5 -28.5t-7.5 -26.5q-43 -133 -140 -221t-188 -120t-177 -32q-176 0 -283 122t-72 308zM711 920l30 165h60l-31 -165h-59z" />
<glyph unicode="&#xc0;" horiz-adv-x="1406" d="M14 0l930 1516h80l369 -1516h-66l-129 528h-792l-326 -528h-66zM442 584h740l-209 874zM768 1880l37 47l434 -282l-35 -48z" />
<glyph unicode="&#xc1;" horiz-adv-x="1406" d="M14 0l930 1516h80l369 -1516h-66l-129 528h-792l-326 -528h-66zM442 584h740l-209 874zM778 1645l537 282l20 -47l-538 -283z" />
<glyph unicode="&#xc2;" horiz-adv-x="1406" d="M14 0l930 1516h80l369 -1516h-66l-129 528h-792l-326 -528h-66zM442 584h740l-209 874zM606 1634l416 240h57l328 -240h-92l-273 195l-344 -195h-92z" />
<glyph unicode="&#xc3;" horiz-adv-x="1406" d="M14 0l930 1516h80l369 -1516h-66l-129 528h-792l-326 -528h-66zM442 584h740l-209 874zM651 1731q84 82 209 81q90 0 189 -40q84 -35 155 -35q96 0 166 65l33 -41q-84 -82 -209 -82q-90 0 -188 41q-84 35 -156 35q-96 0 -166 -65z" />
<glyph unicode="&#xc4;" horiz-adv-x="1406" d="M14 0l930 1516h80l369 -1516h-66l-129 528h-792l-326 -528h-66zM442 584h740l-209 874zM807 1634l43 238h59l-43 -238h-59zM1147 1634l43 238h59l-43 -238h-59z" />
<glyph unicode="&#xc5;" horiz-adv-x="1406" d="M14 0l930 1516h80l369 -1516h-66l-129 528h-792l-326 -528h-66zM442 584h740l-209 874zM840 1743q14 78 79.5 132t141.5 54h2q76 0 121 -54t30 -132q-16 -78 -80.5 -132.5t-142.5 -54.5t-121.5 55.5t-29.5 131.5zM897 1745q-10 -53 20.5 -91t83.5 -38q55 0 100.5 38 t55.5 91q10 55 -20.5 93t-85.5 38h-2q-53 0 -98.5 -39t-53.5 -92z" />
<glyph unicode="&#xc6;" horiz-adv-x="1933" d="M-16 0l1329 1516h749l-10 -56h-647l-123 -669h647l-10 -56h-647l-127 -680h647l-10 -55h-709l101 541h-646l-475 -541h-69zM584 596h600l164 883z" />
<glyph unicode="&#xc7;" horiz-adv-x="1609" d="M225 758q41 223 180.5 403t338 280.5t413.5 100.5q221 -2 373.5 -108.5t222.5 -255.5h-72q-23 41 -57.5 84t-98 98t-162.5 91t-216 36q-303 0 -553 -209t-307.5 -520.5t114.5 -520t476 -208.5q123 0 238.5 35.5t200.5 94t129 96.5t79 75h69q-113 -145 -310.5 -251 t-426.5 -106l-59 -90q31 6 32 6q68 0 100 -44t21 -101q-12 -61 -60 -108.5t-118 -47.5q-25 0 -48.5 5.5t-52 36t-28.5 85.5h55q6 -72 84 -71q37 0 70 26.5t43 73.5q6 41 -16.5 66.5t-61.5 25.5q-53 0 -92 -51l-45 10l119 182q-301 23 -468 242.5t-106 538.5z" />
<glyph unicode="&#xc8;" horiz-adv-x="1120" d="M158 0l280 1516h832l-10 -56h-771l-122 -669h770l-11 -56h-770l-127 -680h770l-10 -55h-831zM637 1890l37 47l434 -282l-37 -47z" />
<glyph unicode="&#xc9;" horiz-adv-x="1120" d="M158 0l280 1516h832l-10 -56h-771l-122 -669h770l-11 -56h-770l-127 -680h770l-10 -55h-831zM627 1655l536 282l21 -47l-541 -282z" />
<glyph unicode="&#xca;" horiz-adv-x="1120" d="M158 0l280 1516h832l-10 -56h-771l-122 -669h770l-11 -56h-770l-127 -680h770l-10 -55h-831zM465 1645l416 239h57l328 -239h-92l-275 194l-342 -194h-92z" />
<glyph unicode="&#xcb;" horiz-adv-x="1120" d="M158 0l280 1516h832l-10 -56h-771l-122 -669h770l-11 -56h-770l-127 -680h770l-10 -55h-831zM666 1645l43 237h59l-43 -237h-59zM1006 1645l43 237h59l-43 -237h-59z" />
<glyph unicode="&#xcc;" horiz-adv-x="378" d="M158 0l280 1516h62l-281 -1516h-61zM223 1880l37 47l434 -282l-35 -48z" />
<glyph unicode="&#xcd;" horiz-adv-x="378" d="M158 0l280 1516h62l-281 -1516h-61zM295 1645l536 282l21 -47l-539 -283z" />
<glyph unicode="&#xce;" horiz-adv-x="378" d="M90 1624l416 240h57l328 -240h-92l-273 195l-344 -195h-92zM158 0l280 1516h62l-281 -1516h-61z" />
<glyph unicode="&#xcf;" horiz-adv-x="378" d="M158 0l280 1516h62l-281 -1516h-61zM293 1634l43 238h59l-43 -238h-59zM633 1634l43 238h59l-43 -238h-59z" />
<glyph unicode="&#xd0;" horiz-adv-x="1435" d="M137 735l10 56h158l133 725h428q360 0 525 -201q164 -199 100 -557q-68 -358 -307.5 -558t-597.5 -200h-428l137 735h-158zM229 55h367q330 0 551 185.5t280 513.5q61 334 -88 520q-152 186 -483 186h-367l-122 -669h514l-11 -56h-514z" />
<glyph unicode="&#xd1;" horiz-adv-x="1511" d="M158 0l280 1516h92l777 -1434l266 1434h61l-280 -1516h-78l-787 1454l-270 -1454h-61zM702 1720q84 82 209 82q90 0 189 -41q88 -35 155 -35q96 0 166 66l33 -41q-84 -82 -209 -82q-90 0 -188 41q-84 35 -156 35q-96 0 -166 -66z" />
<glyph unicode="&#xd2;" horiz-adv-x="1742" d="M225 758v2q41 221 180.5 401t338 280.5t413.5 100.5q330 0 516.5 -223t124.5 -561q-63 -338 -332.5 -561.5t-599 -223.5t-517 223.5t-124.5 561.5zM285 756q-57 -311 115.5 -519t476 -208t553 208.5t307 520t-114.5 520.5t-475 209t-553 -209t-307 -520zM948 1890l37 47 l434 -282l-37 -47z" />
<glyph unicode="&#xd3;" horiz-adv-x="1742" d="M225 758v2q41 221 180.5 401t338 280.5t413.5 100.5q330 0 516.5 -223t124.5 -561q-63 -338 -332.5 -561.5t-599 -223.5t-517 223.5t-124.5 561.5zM285 756q-57 -311 115.5 -519t476 -208t553 208.5t307 520t-114.5 520.5t-475 209t-553 -209t-307 -520zM938 1655 l537 282l20 -47l-541 -282z" />
<glyph unicode="&#xd4;" horiz-adv-x="1742" d="M225 758v2q41 221 180.5 401t338 280.5t413.5 100.5q330 0 516.5 -223t124.5 -561q-63 -338 -332.5 -561.5t-599 -223.5t-517 223.5t-124.5 561.5zM285 756q-57 -311 115.5 -519t476 -208t553 208.5t307 520t-114.5 520.5t-475 209t-553 -209t-307 -520zM774 1634 l416 240h57l328 -240h-92l-273 195l-344 -195h-92z" />
<glyph unicode="&#xd5;" horiz-adv-x="1742" d="M225 758v2q41 221 180.5 401t338 280.5t413.5 100.5q330 0 516.5 -223t124.5 -561q-63 -338 -332.5 -561.5t-599 -223.5t-517 223.5t-124.5 561.5zM285 756q-57 -311 115.5 -519t476 -208t553 208.5t307 520t-114.5 520.5t-475 209t-553 -209t-307 -520zM817 1720 q84 82 209 82q90 0 188 -41q88 -35 156 -35q96 0 166 66l33 -41q-84 -82 -209 -82q-90 0 -189 41q-84 35 -155 35q-96 0 -166 -66z" />
<glyph unicode="&#xd6;" horiz-adv-x="1742" d="M225 758v2q41 221 180.5 401t338 280.5t413.5 100.5q330 0 516.5 -223t124.5 -561q-63 -338 -332.5 -561.5t-599 -223.5t-517 223.5t-124.5 561.5zM285 756q-57 -311 115.5 -519t476 -208t553 208.5t307 520t-114.5 520.5t-475 209t-553 -209t-307 -520zM977 1645l43 237 h59l-43 -237h-59zM1317 1645l43 237h59l-43 -237h-59z" />
<glyph unicode="&#xd7;" horiz-adv-x="1228" d="M111 43l557 471l-385 463l49 45l385 -467l557 467l33 -45l-553 -463l381 -471l-50 -43l-383 473l-559 -473z" />
<glyph unicode="&#xd8;" horiz-adv-x="1742" d="M199 -102l215 233q-123 106 -174.5 269t-14.5 358q41 223 180.5 403t338 280.5t413.5 100.5q248 0 424 -133l188 209h76l-223 -246q246 -233 176 -614q-63 -338 -332.5 -561.5t-599.5 -223.5q-242 0 -407 125l-185 -200h-75zM287 758q-33 -180 13 -331t157 -249 l1077 1182q-158 127 -387 127q-303 0 -553 -209t-307 -520zM502 145q154 -117 375 -116q303 0 552.5 208.5t307.5 520.5q31 172 -11.5 320.5t-144.5 248.5z" />
<glyph unicode="&#xd9;" horiz-adv-x="1239" d="M233.5 297q-2.5 70 3 119t17.5 116l182 984h62l-183 -984q-25 -102 -23.5 -191t50.5 -173q37 -63 116 -101t171 -38q88 0 178 37.5t151 101.5q80 84 109 157.5t53 206.5l183 984h61l-182 -984q-10 -66 -23.5 -115.5t-42.5 -118.5t-80 -128t-123 -104q-141 -92 -299 -93 q-156 0 -264 93q-55 45 -84.5 103t-32 128zM629 1860l39 47l432 -283l-35 -47z" />
<glyph unicode="&#xda;" horiz-adv-x="1239" d="M233.5 297q-2.5 70 3 119t17.5 116l182 984h62l-183 -984q-25 -102 -23.5 -191t50.5 -173q37 -63 116 -101t171 -38q88 0 178 37.5t151 101.5q80 84 109 157.5t53 206.5l183 984h61l-182 -984q-10 -66 -23.5 -115.5t-42.5 -118.5t-80 -128t-123 -104q-141 -92 -299 -93 q-156 0 -264 93q-55 45 -84.5 103t-32 128zM680 1624l539 283l18 -47l-539 -283z" />
<glyph unicode="&#xdb;" horiz-adv-x="1239" d="M233.5 297q-2.5 70 3 119t17.5 116l182 984h62l-183 -984q-25 -102 -23.5 -191t50.5 -173q37 -63 116 -101t171 -38q88 0 178 37.5t151 101.5q80 84 109 157.5t53 206.5l183 984h61l-182 -984q-10 -66 -23.5 -115.5t-42.5 -118.5t-80 -128t-123 -104q-141 -92 -299 -93 q-156 0 -264 93q-55 45 -84.5 103t-32 128zM518 1614l416 239h57l328 -239h-92l-273 194l-344 -194h-92z" />
<glyph unicode="&#xdc;" horiz-adv-x="1239" d="M233.5 297q-2.5 70 3 119t17.5 116l182 984h62l-183 -984q-25 -102 -23.5 -191t50.5 -173q37 -63 116 -101t171 -38q88 0 178 37.5t151 101.5q80 84 109 157.5t53 206.5l183 984h61l-182 -984q-10 -66 -23.5 -115.5t-42.5 -118.5t-80 -128t-123 -104q-141 -92 -299 -93 q-156 0 -264 93q-55 45 -84.5 103t-32 128zM719 1614l45 237h59l-45 -237h-59zM1059 1614l45 237h59l-45 -237h-59z" />
<glyph unicode="&#xdd;" horiz-adv-x="1134" d="M311 1516h68l299 -924l637 924h69l-690 -994l-96 -522h-61l96 522zM690 1624l539 283l18 -47l-538 -283z" />
<glyph unicode="&#xde;" horiz-adv-x="1046" d="M137 0l281 1516h61l-59 -320h291q150 0 224.5 -17.5t137.5 -72.5q59 -49 85 -143.5t5 -196.5q-18 -102 -78.5 -196.5t-136.5 -143.5q-84 -55 -166 -72.5t-231 -17.5h-291l-61 -336h-62zM270 391h293q133 0 210 18.5t151 65.5q61 43 112 123t66 166q16 88 -3.5 170 t-66.5 123q-57 47 -126.5 65.5t-203.5 18.5h-292z" />
<glyph unicode="&#xdf;" horiz-adv-x="1144" d="M156 0l180 969q33 176 65.5 262t90.5 149q63 76 156 119t186 43q184 0 272 -111.5t53 -291.5q-49 -256 -295 -369q160 -23 225.5 -136.5t38.5 -254.5q-33 -180 -180 -293t-336 -113q-152 2 -251 93.5t-80 293.5l-68 -360h-57zM285 391h53q-14 -104 8.5 -179t72.5 -113 t101 -55t107 -17q164 0 289.5 96t152.5 246q33 176 -76 282q-49 41 -108.5 59.5t-186.5 20.5h-57l10 53h56q131 0 248.5 101.5t146.5 253.5q31 166 -46 258t-231 92q-78 0 -156.5 -36t-127.5 -93q-61 -72 -90 -153t-58 -238z" />
<glyph unicode="&#xe0;" horiz-adv-x="1380" d="M184 543q43 233 233.5 401t444.5 168q184 0 304 -94t145 -219l53 286h57l-200 -1085h-58l51 281q-100 -147 -246.5 -227.5t-316.5 -80.5q-256 0 -383 169.5t-84 400.5zM242 541q-23 -129 11 -243t140.5 -192.5t272.5 -78.5q170 0 314 93t226 245q49 90 66 190 q18 102 -2 188q-29 143 -141.5 229.5t-276.5 86.5q-215 0 -391 -145.5t-219 -370.5v-2zM694 1491l37 47l434 -283l-37 -47z" />
<glyph unicode="&#xe1;" horiz-adv-x="1380" d="M184 543q43 233 233.5 401t444.5 168q184 0 304 -94t145 -219l53 286h57l-200 -1085h-58l51 281q-100 -147 -246.5 -227.5t-316.5 -80.5q-256 0 -383 169.5t-84 400.5zM242 541q-23 -129 11 -243t140.5 -192.5t272.5 -78.5q170 0 314 93t226 245q49 90 66 190 q18 102 -2 188q-29 143 -141.5 229.5t-276.5 86.5q-215 0 -391 -145.5t-219 -370.5v-2zM674 1255l536 283l21 -47l-541 -283z" />
<glyph unicode="&#xe2;" horiz-adv-x="1380" d="M184 543q43 233 233.5 401t444.5 168q184 0 304 -94t145 -219l53 286h57l-200 -1085h-58l51 281q-100 -147 -246.5 -227.5t-316.5 -80.5q-256 0 -383 169.5t-84 400.5zM242 541q-23 -129 11 -243t140.5 -192.5t272.5 -78.5q170 0 314 93t226 245q49 90 66 190 q18 102 -2 188q-29 143 -141.5 229.5t-276.5 86.5q-215 0 -391 -145.5t-219 -370.5v-2zM522 1245l414 240h57l330 -240h-92l-275 195l-342 -195h-92z" />
<glyph unicode="&#xe3;" horiz-adv-x="1380" d="M184 543q43 233 233.5 401t444.5 168q184 0 304 -94t145 -219l53 286h57l-200 -1085h-58l51 281q-100 -147 -246.5 -227.5t-316.5 -80.5q-256 0 -383 169.5t-84 400.5zM242 541q-23 -129 11 -243t140.5 -192.5t272.5 -78.5q170 0 314 93t226 245q49 90 66 190 q18 102 -2 188q-29 143 -141.5 229.5t-276.5 86.5q-215 0 -391 -145.5t-219 -370.5v-2zM563 1331q88 82 211 82q90 0 189 -41q84 -35 155 -35q96 0 166 66l33 -41q-84 -82 -209 -82q-90 0 -188 41q-88 35 -156 35q-100 0 -166 -66z" />
<glyph unicode="&#xe4;" horiz-adv-x="1380" d="M184 543q43 233 233.5 401t444.5 168q184 0 304 -94t145 -219l53 286h57l-200 -1085h-58l51 281q-100 -147 -246.5 -227.5t-316.5 -80.5q-256 0 -383 169.5t-84 400.5zM242 541q-23 -129 11 -243t140.5 -192.5t272.5 -78.5q170 0 314 93t226 245q49 90 66 190 q18 102 -2 188q-29 143 -141.5 229.5t-276.5 86.5q-215 0 -391 -145.5t-219 -370.5v-2zM702 1245l43 238h60l-43 -238h-60zM1042 1245l43 238h60l-43 -238h-60z" />
<glyph unicode="&#xe5;" horiz-adv-x="1380" d="M184 543q43 233 233.5 401t444.5 168q184 0 304 -94t145 -219l53 286h57l-200 -1085h-58l51 281q-100 -147 -246.5 -227.5t-316.5 -80.5q-256 0 -383 169.5t-84 400.5zM242 541q-23 -129 11 -243t140.5 -192.5t272.5 -78.5q170 0 314 93t226 245q49 90 66 190 q18 102 -2 188q-29 143 -141.5 229.5t-276.5 86.5q-215 0 -391 -145.5t-219 -370.5v-2zM737.5 1374q14.5 78 80 132.5t140.5 54.5h3q78 0 121.5 -55.5t29.5 -131.5q-14 -78 -79.5 -132t-143.5 -54q-76 0 -121 54t-30.5 132zM796.5 1376.5q-10.5 -53.5 20.5 -91.5t84 -38 q55 0 100.5 38t55.5 91.5t-21.5 92t-87.5 38.5h-2q-51 0 -95 -38.5t-54.5 -92z" />
<glyph unicode="&#xe6;" horiz-adv-x="2363" d="M176 390q-2 77 8 151q45 244 238.5 407.5t435.5 163.5q356 0 445 -344l59 317h57l-57 -315q207 342 555 342q254 0 383 -176q119 -162 80 -399h-1061q-14 -147 24.5 -255t110.5 -159t140.5 -73.5t136.5 -22.5q154 0 284.5 84t220.5 202h68q-90 -143 -248 -241.5 t-327 -98.5q-184 0 -300 93.5t-149 265.5l-61 -332h-58l62 332q-68 -150 -232 -254.5t-340 -104.5q-119 0 -211 36t-143 95.5t-85 134t-36 151.5zM242 541q-41 -219 78.5 -366.5t341.5 -147.5q207 0 385 154.5t217 361.5q41 207 -80 360q-125 156 -330 156 q-221 0 -396 -147.5t-216 -368.5v-2zM1329 590h995q6 227 -105.5 348t-307.5 121q-219 0 -395 -168q-55 -51 -94.5 -108.5t-54.5 -93.5t-38 -99z" />
<glyph unicode="&#xe7;" horiz-adv-x="1267" d="M184 543q47 242 240.5 405.5t437.5 163.5q176 0 309.5 -98.5t159.5 -280.5h-63q-27 166 -150 247t-264 79q-207 -2 -393 -146q-80 -61 -139.5 -161.5t-79.5 -208.5q-43 -225 80.5 -370.5t336.5 -145.5q176 2 321.5 94t213.5 221h63q-88 -166 -251.5 -266.5t-358.5 -102.5 l-59 -90q31 6 33 6q68 0 99.5 -44t20.5 -101q-12 -61 -60 -108.5t-118 -47.5q-25 0 -48 5.5t-52 36t-29 85.5h55q6 -72 84 -71q37 0 70 26.5t43 73.5q6 41 -16.5 66.5t-61.5 25.5q-53 0 -92 -51l-45 10l119 185q-217 18 -333 174t-73 389z" />
<glyph unicode="&#xe8;" horiz-adv-x="1267" d="M156 389q-2 78 8 152q45 244 240.5 407.5t439.5 163.5q227 0 360 -145q76 -80 102.5 -195t-1.5 -235h-1082q-23 -127 8 -228.5t97.5 -161t147.5 -90t165 -30.5q154 0 291 74.5t225 211.5h64q-100 -166 -267 -258q-152 -82 -323 -82q-119 0 -211 36t-143.5 94.5t-85 133 t-35.5 152.5zM233 590h1022q27 195 -101 336t-320 133q-205 0 -378.5 -133t-222.5 -336zM637 1491l37 47l434 -283l-37 -47z" />
<glyph unicode="&#xe9;" horiz-adv-x="1267" d="M156 389q-2 78 8 152q45 244 240.5 407.5t439.5 163.5q227 0 360 -145q76 -80 102.5 -195t-1.5 -235h-1082q-23 -127 8 -228.5t97.5 -161t147.5 -90t165 -30.5q154 0 291 74.5t225 211.5h64q-100 -166 -267 -258q-152 -82 -323 -82q-119 0 -211 36t-143.5 94.5t-85 133 t-35.5 152.5zM233 590h1022q27 195 -101 336t-320 133q-205 0 -378.5 -133t-222.5 -336zM616 1255l537 283l21 -47l-541 -283z" />
<glyph unicode="&#xea;" horiz-adv-x="1267" d="M156 389q-2 78 8 152q45 244 240.5 407.5t439.5 163.5q227 0 360 -145q76 -80 102.5 -195t-1.5 -235h-1082q-23 -127 8 -228.5t97.5 -161t147.5 -90t165 -30.5q154 0 291 74.5t225 211.5h64q-100 -166 -267 -258q-152 -82 -323 -82q-119 0 -211 36t-143.5 94.5t-85 133 t-35.5 152.5zM233 590h1022q27 195 -101 336t-320 133q-205 0 -378.5 -133t-222.5 -336zM465 1245l414 240h57l330 -240h-92l-275 195l-342 -195h-92z" />
<glyph unicode="&#xeb;" horiz-adv-x="1267" d="M156 389q-2 78 8 152q45 244 240.5 407.5t439.5 163.5q227 0 360 -145q76 -80 102.5 -195t-1.5 -235h-1082q-23 -127 8 -228.5t97.5 -161t147.5 -90t165 -30.5q154 0 291 74.5t225 211.5h64q-100 -166 -267 -258q-152 -82 -323 -82q-119 0 -211 36t-143.5 94.5t-85 133 t-35.5 152.5zM233 590h1022q27 195 -101 336t-320 133q-205 0 -378.5 -133t-222.5 -336zM655 1245l43 238h60l-43 -238h-60zM995 1245l43 238h60l-43 -238h-60z" />
<glyph unicode="&#xec;" horiz-adv-x="376" d="M150 1491l36 47l435 -283l-37 -47zM160 0l200 1085h58l-201 -1085h-57z" />
<glyph unicode="&#xed;" horiz-adv-x="376" d="M160 0l200 1085h58l-201 -1085h-57zM221 1255l537 283l20 -47l-540 -283z" />
<glyph unicode="&#xee;" horiz-adv-x="376" d="M20 1245l414 240h58l329 -240h-92l-274 195l-342 -195h-93zM160 0l200 1085h58l-201 -1085h-57z" />
<glyph unicode="&#xef;" horiz-adv-x="376" d="M160 0l200 1085h58l-201 -1085h-57zM221 1245l43 238h60l-43 -238h-60zM561 1245l43 238h60l-43 -238h-60z" />
<glyph unicode="&#xf0;" horiz-adv-x="1312" d="M184 541q51 254 240.5 410.5t439.5 160.5q117 0 217.5 -48t153.5 -132q-20 68 -82 143q-106 137 -268 230l-490 -168l11 61l417 143q-147 80 -321 144l76 31q182 -66 321 -150l436 150l-10 -62l-364 -125q260 -166 348 -395q61 -176 20 -389q-33 -176 -143.5 -308.5 t-249.5 -196t-285 -67.5q-231 0 -372.5 151t-94.5 417zM242 541q-43 -219 76.5 -366.5t340.5 -147.5q223 0 397.5 148.5t215.5 369.5q39 213 -85 363.5t-331 150.5q-223 -2 -398 -149.5t-216 -366.5v-2z" />
<glyph unicode="&#xf1;" horiz-adv-x="1312" d="M160 0l200 1085h58q-14 -82 -45 -235q78 135 214 200.5t290 61.5q238 -6 335 -143.5t52 -384.5l-109 -584h-57l108 584q41 225 -47 351t-305 124q-201 -4 -342 -116t-178 -318l-117 -625h-57zM528 1331q88 82 211 82q90 0 189 -41q84 -35 155 -35q96 0 166 66l33 -41 q-84 -82 -209 -82q-90 0 -188 41q-86 35 -156 35q-100 0 -166 -66z" />
<glyph unicode="&#xf2;" horiz-adv-x="1312" d="M184 543v2q45 242 239.5 404.5t438.5 162.5t377 -163t88 -406.5t-238.5 -406.5t-437 -163t-378 163t-89.5 407zM242 541q-41 -219 78.5 -366.5t339 -147.5t394.5 147.5t216 368.5t-79 368.5t-339 147.5t-394 -147.5t-216 -368.5v-2zM659 1491l37 47l434 -283l-36 -47z " />
<glyph unicode="&#xf3;" horiz-adv-x="1312" d="M184 543v2q45 242 239.5 404.5t438.5 162.5t377 -163t88 -406.5t-238.5 -406.5t-437 -163t-378 163t-89.5 407zM242 541q-41 -219 78.5 -366.5t339 -147.5t394.5 147.5t216 368.5t-79 368.5t-339 147.5t-394 -147.5t-216 -368.5v-2zM639 1255l537 283l20 -47l-541 -283z " />
<glyph unicode="&#xf4;" horiz-adv-x="1312" d="M184 543v2q45 242 239.5 404.5t438.5 162.5t377 -163t88 -406.5t-238.5 -406.5t-437 -163t-378 163t-89.5 407zM242 541q-41 -219 78.5 -366.5t339 -147.5t394.5 147.5t216 368.5t-79 368.5t-339 147.5t-394 -147.5t-216 -368.5v-2zM487 1245l414 240h57l330 -240h-92 l-274 195l-342 -195h-93z" />
<glyph unicode="&#xf5;" horiz-adv-x="1312" d="M184 543v2q45 242 239.5 404.5t438.5 162.5t377 -163t88 -406.5t-238.5 -406.5t-437 -163t-378 163t-89.5 407zM242 541q-41 -219 78.5 -366.5t339 -147.5t394.5 147.5t216 368.5t-79 368.5t-339 147.5t-394 -147.5t-216 -368.5v-2zM528 1331q88 82 211 82q90 0 189 -41 q84 -35 155 -35q96 0 166 66l33 -41q-84 -82 -209 -82q-90 0 -188 41q-86 35 -156 35q-100 0 -166 -66z" />
<glyph unicode="&#xf6;" horiz-adv-x="1312" d="M184 543v2q45 242 239.5 404.5t438.5 162.5t377 -163t88 -406.5t-238.5 -406.5t-437 -163t-378 163t-89.5 407zM242 541q-41 -219 78.5 -366.5t339 -147.5t394.5 147.5t216 368.5t-79 368.5t-339 147.5t-394 -147.5t-216 -368.5v-2zM688 1245l43 238h60l-43 -238h-60z M1028 1245l43 238h59l-43 -238h-59z" />
<glyph unicode="&#xf7;" horiz-adv-x="1228" d="M193 483l10 58h1024l-10 -58h-1024zM584 0l30 166h62l-31 -166h-61zM743 858l31 166h62l-31 -166h-62z" />
<glyph unicode="&#xf8;" horiz-adv-x="1312" d="M162 -72l153 168q-86 76 -121.5 193t-9.5 254q45 242 239.5 405.5t438.5 163.5q178 0 295 -90l123 135h70l-150 -166q178 -172 127 -448q-45 -244 -238.5 -407t-437.5 -163q-174 0 -297 90l-123 -135h-69zM242 543q-47 -254 112 -404l762 838q-106 82 -264 82 q-219 0 -394 -147.5t-216 -368.5zM393 106q113 -80 266 -79q219 0 394.5 147.5t216.5 368.5q47 252 -111 403z" />
<glyph unicode="&#xf9;" horiz-adv-x="1312" d="M250 502l108 583h58l-109 -583q-41 -225 47 -351t305 -124q201 4 342.5 115.5t180.5 318.5l114 624h58l-201 -1085h-57q4 20 19 101t26 135q-78 -135 -213 -201t-289 -62q-240 6 -337 143.5t-52 385.5zM598 1491l37 47l434 -283l-37 -47z" />
<glyph unicode="&#xfa;" horiz-adv-x="1312" d="M250 502l108 583h58l-109 -583q-41 -225 47 -351t305 -124q201 4 342.5 115.5t180.5 318.5l114 624h58l-201 -1085h-57q4 20 19 101t26 135q-78 -135 -213 -201t-289 -62q-240 6 -337 143.5t-52 385.5zM649 1255l537 283l20 -47l-540 -283z" />
<glyph unicode="&#xfb;" horiz-adv-x="1312" d="M250 502l108 583h58l-109 -583q-41 -225 47 -351t305 -124q201 4 342.5 115.5t180.5 318.5l114 624h58l-201 -1085h-57q4 20 19 101t26 135q-78 -135 -213 -201t-289 -62q-240 6 -337 143.5t-52 385.5zM487 1245l414 240h57l330 -240h-92l-274 195l-342 -195h-93z" />
<glyph unicode="&#xfc;" horiz-adv-x="1312" d="M250 502l108 583h58l-109 -583q-41 -225 47 -351t305 -124q201 4 342.5 115.5t180.5 318.5l114 624h58l-201 -1085h-57q4 20 19 101t26 135q-78 -135 -213 -201t-289 -62q-240 6 -337 143.5t-52 385.5zM688 1245l43 238h60l-43 -238h-60zM1028 1245l43 238h59l-43 -238 h-59z" />
<glyph unicode="&#xfd;" horiz-adv-x="985" d="M180 -436l273 438l-230 1083h64l215 -1005l614 1005h68l-938 -1521h-66zM547 1255l536 283l21 -47l-541 -283z" />
<glyph unicode="&#xfe;" horiz-adv-x="1394" d="M80 -436l360 1952h58l-103 -555l-30 -168q119 178 282.5 248.5t294.5 70.5q244 0 378 -163t89 -406.5t-239.5 -406.5t-438.5 -163q-170 0 -292 87t-169 227l-26 -140l-107 -583h-57zM317 537q-39 -201 82 -351q123 -160 342 -159q221 0 395.5 147.5t215.5 368.5v2 q41 219 -78 366.5t-340 147.5q-211 0 -387 -144q-189 -149 -230 -378z" />
<glyph unicode="&#xff;" horiz-adv-x="985" d="M180 -436l273 438l-230 1083h64l215 -1005l614 1005h68l-938 -1521h-66zM524 1245l43 238h60l-43 -238h-60zM864 1245l43 238h60l-43 -238h-60z" />
<glyph unicode="&#x152;" horiz-adv-x="2412" d="M225 758q61 342 326.5 563t591.5 221q258 0 431 -138t202 -357l43 235l43 234h706l-10 -56h-645l-123 -669h645l-10 -56h-645l-127 -680h645l-10 -55h-707l43 236l43 233q-106 -219 -329.5 -357.5t-477.5 -138.5q-332 0 -515 221.5t-120 563.5zM285 756 q-57 -315 110.5 -521t470.5 -206q305 0 552 213t304 518q49 309 -113.5 518t-471.5 209q-303 0 -548 -206t-302 -523z" />
<glyph unicode="&#x153;" horiz-adv-x="2367" d="M176 441.5q-4 58.5 8 99.5q45 244 239.5 407.5t438.5 163.5q188 0 310 -107.5t151 -289.5q25 55 71 114.5t118.5 125t181 107.5t233.5 42q240 0 373 -170q127 -166 86 -395h-1061q-35 -244 90 -378t320 -134q147 0 287.5 75.5t215.5 214.5h64q-33 -53 -54.5 -82.5 t-75.5 -83t-122 -92.5q-160 -86 -324 -86q-197 0 -317.5 107.5t-146.5 284.5q-121 -207 -285 -299.5t-326 -92.5q-111 0 -197.5 31t-136 80t-85 110.5t-44 125t-12.5 122zM242 541q-41 -219 78.5 -366.5t338.5 -147.5q215 0 390.5 155.5t214.5 356.5q37 199 -77 359.5 t-335 160.5q-219 0 -394 -147.5t-216 -368.5v-2zM1337 592h992q6 53 -2.5 112.5t-38 122t-76.5 111.5t-124 81t-173 32q-193 0 -356 -129t-222 -330z" />
<glyph unicode="&#x178;" horiz-adv-x="1134" d="M311 1516h68l299 -924l637 924h69l-690 -994l-96 -522h-61l96 522zM668 1614l45 237h59l-45 -237h-59zM1008 1614l45 237h59l-45 -237h-59z" />
<glyph unicode="&#x2c6;" d="M399 1245l414 240h57l330 -240h-92l-274 195l-342 -195h-93z" />
<glyph unicode="&#x2dc;" d="M440 1331q88 82 211 82q90 0 189 -41q84 -35 155 -35q96 0 166 66l33 -41q-84 -82 -209 -82q-90 0 -188 41q-88 35 -156 35q-100 0 -166 -66z" />
<glyph unicode="&#x2000;" horiz-adv-x="968" />
<glyph unicode="&#x2001;" horiz-adv-x="1937" />
<glyph unicode="&#x2002;" horiz-adv-x="968" />
<glyph unicode="&#x2003;" horiz-adv-x="1937" />
<glyph unicode="&#x2004;" horiz-adv-x="645" />
<glyph unicode="&#x2005;" horiz-adv-x="483" />
<glyph unicode="&#x2006;" horiz-adv-x="321" />
<glyph unicode="&#x2007;" horiz-adv-x="321" />
<glyph unicode="&#x2008;" horiz-adv-x="241" />
<glyph unicode="&#x2009;" horiz-adv-x="387" />
<glyph unicode="&#x200a;" horiz-adv-x="106" />
<glyph unicode="&#x2010;" horiz-adv-x="544" d="M100 537l11 59h544l-10 -59h-545z" />
<glyph unicode="&#x2011;" horiz-adv-x="544" d="M100 537l11 59h544l-10 -59h-545z" />
<glyph unicode="&#x2012;" horiz-adv-x="544" d="M100 537l11 59h544l-10 -59h-545z" />
<glyph unicode="&#x2013;" horiz-adv-x="1024" d="M172 537l10 59h881l-10 -59h-881z" />
<glyph unicode="&#x2014;" horiz-adv-x="2048" d="M172 537l10 59h1905l-10 -59h-1905z" />
<glyph unicode="&#x2018;" horiz-adv-x="567" d="M465 1516h67l74 -316h-67z" />
<glyph unicode="&#x2019;" horiz-adv-x="567" d="M408 1200l188 316h68l-189 -316h-67z" />
<glyph unicode="&#x201a;" horiz-adv-x="567" d="M158 -147l188 315h68l-189 -315h-67z" />
<glyph unicode="&#x201c;" horiz-adv-x="757" d="M469 1516h68l73 -316h-67zM651 1516h68l74 -316h-68z" />
<glyph unicode="&#x201d;" horiz-adv-x="757" d="M412 1200l188 316h68l-189 -316h-67zM594 1200l188 316h68l-188 -316h-68z" />
<glyph unicode="&#x201e;" horiz-adv-x="757" d="M162 -147l188 315h68l-189 -315h-67zM344 -147l188 315h68l-188 -315h-68z" />
<glyph unicode="&#x2022;" horiz-adv-x="768" d="M346 764q14 74 75.5 124t137.5 50h2q74 0 116 -51t27.5 -123t-75 -123t-136 -51t-118.5 51t-29 123z" />
<glyph unicode="&#x2026;" horiz-adv-x="2048" d="M311 0l31 168h61l-30 -168h-62zM993 0l31 168h61l-30 -168h-62zM1675 0l31 168h61l-30 -168h-62z" />
<glyph unicode="&#x202f;" horiz-adv-x="387" />
<glyph unicode="&#x2039;" horiz-adv-x="507" d="M207 563l307 398h72l-307 -398l161 -391h-71z" />
<glyph unicode="&#x203a;" horiz-adv-x="507" d="M133 172l305 391l-159 398h71l160 -398l-305 -391h-72z" />
<glyph unicode="&#x205f;" horiz-adv-x="483" />
<glyph unicode="&#x20ac;" d="M172 608l18 54h156q2 16 7 41l7 36q6 35 29 144h-190l18 53h184q68 285 193 432q147 174 385 174q186 0 272 -106q61 -76 62 -189q0 -33 -2 -49h-60v27q0 113 -55 176q-74 86 -229 86q-199 0 -326 -158q-109 -131 -176 -393h653l-18 -53h-647q-6 -25 -14.5 -68t-10.5 -55 q-4 -16 -9 -50t-7 -48h612l-18 -54h-600q-16 -127 -17 -192q0 -184 47 -266q70 -121 262 -121q168 0 275 90q76 63 125 192h61q-53 -154 -158 -237q-123 -100 -315 -101q-211 0 -305 144q-57 88 -57 282q0 78 16 209h-168z" />
<glyph unicode="&#x2122;" horiz-adv-x="2027" d="M291 1466l8 50h565l-8 -50h-256l-160 -860h-55l160 860h-254zM825 606l168 910h76l274 -824l580 824h74l-168 -910h-55l153 830l-584 -830h-32l-277 828l-153 -828h-56z" />
<glyph unicode="&#xe000;" horiz-adv-x="1085" d="M0 1085h1085v-1085h-1085v1085z" />
<glyph unicode="&#xfb01;" horiz-adv-x="804" d="M193 0l190 1032h-178l10 53h178l21 109q61 336 405 348l-10 -55q-129 -10 -193 -51q-113 -72 -147 -258l-18 -93h395l-201 -1085h-57l190 1032h-338l-190 -1032h-57zM834 1329l34 187h58l-35 -187h-57z" />
<glyph unicode="&#xfb02;" horiz-adv-x="804" d="M193 0l190 1032h-178l10 53h178l21 109q61 336 405 348l-10 -55q-129 -10 -193 -51q-113 -72 -147 -258l-18 -93h337l80 431h58l-281 -1516h-57l190 1032h-338l-190 -1032h-57z" />
<glyph unicode="&#xfb03;" horiz-adv-x="1454" d="M1237 0l200 1085h58l-201 -1085h-57zM1483 1329l34 187h58l-35 -187h-57zM732 0l190 1032h-178l10 53h178l21 109q61 336 405 348l-10 -55q-129 -10 -193 -51q-113 -72 -147 -258l-18 -93h282l-10 -53h-283l-190 -1032h-57zM193 0l190 1032h-178l10 53h178l21 109 q61 336 405 348l-10 -55q-129 -10 -193 -51q-113 -72 -147 -258l-18 -93h282l-10 -53h-283l-190 -1032h-57z" />
<glyph unicode="&#xfb04;" horiz-adv-x="1452" d="M1237 0l280 1516h58l-281 -1516h-57zM732 0l190 1032h-178l10 53h178l21 109q61 336 405 348l-10 -55q-129 -10 -193 -51q-113 -72 -147 -258l-18 -93h282l-10 -53h-283l-190 -1032h-57zM193 0l190 1032h-178l10 53h178l21 109q61 336 405 348l-10 -55q-129 -10 -193 -51 q-113 -72 -147 -258l-18 -93h282l-10 -53h-283l-190 -1032h-57z" />
</font>
</defs>
</svg>
